<svg width="96" height="96" viewBox="0 0 96 96" fill="none" xmlns="http://www.w3.org/2000/svg">
<path d="M0 47.9675C0 21.4758 21.4758 0 47.9675 0C74.4592 0 95.935 21.4758 95.935 47.9675C95.935 74.4592 74.4592 95.935 47.9675 95.935C21.4758 95.935 0 74.4592 0 47.9675Z" fill="#F8FAFC"/>
<path d="M39.971 27.9763V35.9728" stroke="#CAD5E2" stroke-width="3.99825" stroke-linecap="round" stroke-linejoin="round"/>
<path d="M55.964 27.9763V35.9728" stroke="#CAD5E2" stroke-width="3.99825" stroke-linecap="round" stroke-linejoin="round"/>
<path d="M61.9614 31.9745H33.9737C31.7655 31.9745 29.9754 33.7646 29.9754 35.9727V63.9605C29.9754 66.1687 31.7655 67.9587 33.9737 67.9587H61.9614C64.1696 67.9587 65.9597 66.1687 65.9597 63.9605V35.9727C65.9597 33.7646 64.1696 31.9745 61.9614 31.9745Z" stroke="#CAD5E2" stroke-width="3.99825" stroke-linecap="round" stroke-linejoin="round"/>
<path d="M29.9754 43.9692H65.9597" stroke="#CAD5E2" stroke-width="3.99825" stroke-linecap="round" stroke-linejoin="round"/>
</svg>
