<svg width="20" height="20" viewBox="0 0 20 20" fill="none" xmlns="http://www.w3.org/2000/svg">
<path d="M12.0746 3.33092H7.91094L5.82911 5.8291H3.33092C2.88922 5.8291 2.4656 6.00457 2.15327 6.31691C1.84093 6.62924 1.66547 7.05286 1.66547 7.49456V14.9891C1.66547 15.4308 1.84093 15.8544 2.15327 16.1668C2.4656 16.4791 2.88922 16.6546 3.33092 16.6546H16.6546C17.0963 16.6546 17.5199 16.4791 17.8322 16.1668C18.1446 15.8544 18.32 15.4308 18.32 14.9891V7.49456C18.32 7.05286 18.1446 6.62924 17.8322 6.31691C17.5199 6.00457 17.0963 5.8291 16.6546 5.8291H14.1564L12.0746 3.33092Z" stroke="#90A1B9" stroke-width="1.66546" stroke-linecap="round" stroke-linejoin="round"/>
<path d="M9.99276 13.3237C11.3725 13.3237 12.4909 12.2052 12.4909 10.8255C12.4909 9.44576 11.3725 8.32729 9.99276 8.32729C8.61304 8.32729 7.49457 9.44576 7.49457 10.8255C7.49457 12.2052 8.61304 13.3237 9.99276 13.3237Z" stroke="#90A1B9" stroke-width="1.66546" stroke-linecap="round" stroke-linejoin="round"/>
</svg>
