<svg width="14" height="14" viewBox="0 0 14 14" fill="none" xmlns="http://www.w3.org/2000/svg">
<g clip-path="url(#clip0_1_124)">
<path d="M12.7142 5.83195C12.9806 7.13907 12.7908 8.49799 12.1765 9.68209C11.5621 10.8662 10.5604 11.8039 9.33843 12.3389C8.11641 12.8738 6.74794 12.9736 5.46122 12.6217C4.1745 12.2698 3.04731 11.4874 2.26762 10.405C1.48794 9.32264 1.10289 8.00566 1.17669 6.67373C1.25049 5.3418 1.77867 4.07542 2.67316 3.08578C3.56765 2.09615 4.77438 1.44307 6.0921 1.23547C7.40982 1.02786 8.75889 1.27828 9.91433 1.94495" stroke="#05DF72" stroke-width="1.16639" stroke-linecap="round" stroke-linejoin="round"/>
<path d="M5.24876 6.41516L6.99835 8.16475L12.8303 2.33279" stroke="#05DF72" stroke-width="1.16639" stroke-linecap="round" stroke-linejoin="round"/>
</g>
<defs>
<clipPath id="clip0_1_124">
<rect width="13.9967" height="13.9967" fill="white"/>
</clipPath>
</defs>
</svg>
