<svg width="64" height="64" viewBox="0 0 64 64" fill="none" xmlns="http://www.w3.org/2000/svg">
<path d="M0 31.986C0 14.3206 14.3206 0 31.986 0C49.6514 0 63.972 14.3206 63.972 31.986C63.972 49.6514 49.6514 63.972 31.986 63.972C14.3206 63.972 0 49.6514 0 31.986Z" fill="#F8FAFC"/>
<path d="M45.0483 29.3205C45.6569 32.3076 45.2232 35.4131 43.8193 38.1191C42.4154 40.825 40.1263 42.968 37.3337 44.1904C34.5411 45.4129 31.4138 45.6411 28.4733 44.8369C25.5328 44.0327 22.9569 42.2447 21.1751 39.7712C19.3933 37.2976 18.5134 34.288 18.682 31.2442C18.8507 28.2004 20.0577 25.3064 22.1019 23.0448C24.146 20.7833 26.9037 19.2908 29.915 18.8164C32.9263 18.342 36.0093 18.9142 38.6497 20.4378" stroke="#CAD5E2" stroke-width="2.6655" stroke-linecap="round" stroke-linejoin="round"/>
<path d="M27.9878 30.6533L31.986 34.6515L45.3135 21.324" stroke="#CAD5E2" stroke-width="2.6655" stroke-linecap="round" stroke-linejoin="round"/>
</svg>
