<svg width="20" height="20" viewBox="0 0 20 20" fill="none" xmlns="http://www.w3.org/2000/svg">
<g clip-path="url(#clip0_3_23)">
<path d="M18.7864 10.2009C18.7864 9.55138 18.7281 8.92684 18.6199 8.32727H9.9928V11.8747H14.9226C14.706 13.0155 14.0565 13.9815 13.0822 14.631V16.9377H16.0551C17.7871 15.3388 18.7864 12.9906 18.7864 10.2009Z" fill="#4285F4"/>
<path d="M9.99271 19.1527C12.4659 19.1527 14.5394 18.3367 16.055 16.9377L13.0821 14.631C12.2661 15.1806 11.2251 15.5137 9.99271 15.5137C7.6111 15.5137 5.58757 13.9066 4.8631 11.7415H1.81531V14.1064C3.32255 17.0959 6.41197 19.1527 9.99271 19.1527Z" fill="#34A853"/>
<path d="M4.86317 11.7331C4.67997 11.1835 4.57172 10.6006 4.57172 9.99274C4.57172 9.38485 4.67997 8.80194 4.86317 8.25234V5.88739H1.81538C1.19084 7.11983 0.832764 8.51049 0.832764 9.99274C0.832764 11.475 1.19084 12.8657 1.81538 14.0981L4.18866 12.2494L4.86317 11.7331Z" fill="#FBBC05"/>
<path d="M9.99271 4.48006C11.3417 4.48006 12.5409 4.94638 13.4985 5.84573L16.1216 3.22264C14.5311 1.74038 12.4659 0.832703 9.99271 0.832703C6.41197 0.832703 3.32255 2.88954 1.81531 5.88737L4.8631 8.25232C5.58757 6.08722 7.6111 4.48006 9.99271 4.48006Z" fill="#EA4335"/>
</g>
<defs>
<clipPath id="clip0_3_23">
<rect width="19.9855" height="19.9855" fill="white"/>
</clipPath>
</defs>
</svg>
