<svg width="16" height="16" viewBox="0 0 16 16" fill="none" xmlns="http://www.w3.org/2000/svg">
<path d="M14.6603 7.99651H13.0077C12.7164 7.99589 12.433 8.09068 12.2008 8.26637C11.9685 8.44207 11.8002 8.68901 11.7215 8.96942L10.1556 14.5403C10.1455 14.5749 10.1244 14.6053 10.0956 14.6269C10.0668 14.6486 10.0317 14.6603 9.99564 14.6603C9.95959 14.6603 9.92452 14.6486 9.89568 14.6269C9.86685 14.6053 9.8458 14.5749 9.83571 14.5403L6.15732 1.45271C6.14723 1.41811 6.12618 1.38771 6.09734 1.36608C6.06851 1.34445 6.03343 1.33276 5.99739 1.33276C5.96134 1.33276 5.92627 1.34445 5.89743 1.36608C5.8686 1.38771 5.84755 1.41811 5.83746 1.45271L4.27148 7.02361C4.19315 7.30292 4.02584 7.54905 3.79493 7.72464C3.56402 7.90023 3.28212 7.99568 2.99204 7.99651H1.33276" stroke="#62748E" stroke-width="1.33275" stroke-linecap="round" stroke-linejoin="round"/>
</svg>
